<?xml version="1.0" standalone="no"?>
<!DOCTYPE svg PUBLIC "-//W3C//DTD SVG 20010904//EN"
 "http://www.w3.org/TR/2001/REC-SVG-20010904/DTD/svg10.dtd">
<svg version="1.0" xmlns="http://www.w3.org/2000/svg"
 width="1024.000000pt" height="1024.000000pt" viewBox="0 0 800.000000 800.000000"
 preserveAspectRatio="xMidYMid meet">
<metadata>
Created by potrace 1.16, written by Peter Selinger 2001-2019
</metadata>
<g transform="translate(-120.000000,950.000000) scale(0.100000,-0.100000)"
fill="#FFFFFF" stroke="none">
<path d="M4992 7982 c6 -115 8 -124 36 -162 29 -40 102 -99 221 -180 l64 -43
-6 -116 c-3 -64 -8 -123 -12 -133 -6 -15 14 -16 237 -15 134 1 262 0 285 -3
38 -4 43 -8 43 -31 0 -47 62 -122 310 -379 136 -140 287 -299 335 -352 l88
-97 2 -183 c1 -101 6 -199 10 -218 l7 -35 -43 40 c-24 22 -154 149 -291 282
-136 133 -257 247 -268 253 -17 9 -20 8 -20 -13 0 -36 -52 -107 -141 -192
-104 -99 -163 -127 -280 -133 -99 -5 -169 11 -262 60 -63 34 -175 145 -206
205 -61 122 -80 279 -81 683 0 113 -3 283 -7 378 l-6 173 -66 -6 c-76 -8 -238
-60 -358 -115 -194 -90 -417 -283 -541 -469 -120 -179 -173 -311 -218 -541
-18 -93 -21 -294 -26 -1823 l-3 -748 105 1 c128 2 198 0 185 -6 -6 -2 -9 -35
-7 -77 l3 -73 -33 -16 c-18 -9 -71 -44 -116 -78 -131 -98 -209 -211 -253 -365
-21 -72 -23 -102 -24 -300 l0 -220 43 0 c23 1 723 2 1556 3 l1514 2 7 164 c10
235 -13 356 -98 501 -72 123 -162 205 -321 289 -60 31 -71 34 -78 21 -8 -13
-130 -15 -1068 -15 l-1060 0 0 48 c-1 26 -7 64 -14 85 l-14 37 182 1 c99 1
657 1 1239 0 l1057 -1 0 60 c0 102 -20 412 -31 479 -14 89 -73 261 -120 351
-52 99 -113 180 -261 341 -126 137 -181 196 -489 519 -97 102 -188 199 -203
216 l-26 32 103 4 c153 7 258 52 371 160 l44 43 -1 -242 c-1 -132 0 -243 3
-245 3 -1 156 -1 340 2 l335 5 41 40 c81 80 78 63 84 399 l5 300 -280 286
c-521 531 -574 586 -584 614 -16 39 -65 56 -168 56 -92 1 -230 14 -239 23 -3
3 -9 34 -14 69 -4 36 -15 78 -23 94 -18 34 -80 88 -195 168 -46 32 -134 104
-195 159 l-110 101 5 -122z m-152 -637 c0 -111 -2 -126 -17 -131 -10 -3 -56
-24 -103 -47 -71 -35 -102 -58 -185 -142 -125 -125 -190 -240 -251 -440 -27
-89 -27 -94 -33 -475 -3 -212 -6 -712 -6 -1112 l0 -726 -107 1 -108 2 0 1038
c0 637 4 1075 10 1135 47 441 227 739 562 926 57 31 207 94 231 96 4 0 7 -56
7 -125z m4 -392 c-4 -49 -8 -551 -9 -1118 -2 -958 -8 -1305 -22 -1329 -3 -5
-2 -7 3 -3 5 3 9 -28 9 -71 0 -43 4 -94 9 -114 l8 -38 -205 0 -205 0 -4 158
c-1 86 -1 578 2 1092 l6 935 26 97 c32 117 94 241 156 309 61 69 191 165 225
168 5 1 5 -38 1 -86z m359 -858 c156 -175 450 -495 622 -675 195 -204 294
-315 287 -320 -13 -10 -33 -52 -28 -58 4 -3 13 3 21 14 14 18 14 17 4 -8 -7
-15 -16 -25 -20 -22 -9 5 -13 -11 -9 -31 1 -5 -2 -6 -7 -2 -13 14 -9 61 7 74
13 10 13 14 -4 30 -18 17 -18 17 -12 -7 3 -14 3 -19 0 -12 -3 6 -10 10 -15 6
-13 -8 -11 10 3 24 9 9 9 12 -1 12 -7 0 -9 5 -6 10 3 6 1 10 -5 10 -7 0 -9 -8
-5 -21 5 -14 4 -19 -4 -15 -7 5 -9 1 -5 -11 5 -16 4 -16 -10 1 -12 16 -13 22
-3 28 6 4 8 8 2 8 -5 0 -17 -4 -25 -9 -18 -12 -31 -5 -24 14 4 8 11 12 16 9 6
-4 5 3 -1 15 -14 25 -23 28 -14 4 6 -15 4 -16 -9 -5 -12 9 -18 10 -23 2 -4 -6
-14 -9 -24 -5 -12 5 -13 4 -4 -6 9 -9 16 -9 26 -1 14 12 27 7 27 -10 0 -5 -6
-6 -12 -2 -7 4 -2 -6 12 -22 14 -16 27 -31 29 -34 2 -3 1 3 -2 13 -4 9 -3 17
2 17 12 0 31 -43 28 -65 -1 -14 4 -20 18 -20 15 0 19 -6 17 -25 -2 -14 -4 -35
-4 -47 0 -13 -4 -23 -10 -23 -5 0 -6 -4 -3 -10 3 -6 -1 -7 -10 -3 -9 3 -13 9
-8 12 4 3 9 11 10 16 1 6 3 17 6 25 2 8 2 12 0 7 -3 -4 -9 -5 -14 -2 -5 4 -6
-2 -2 -12 6 -16 5 -17 -13 -3 -15 11 -16 11 -6 0 17 -20 15 -35 -3 -20 -11 9
-18 10 -29 1 -11 -9 -17 -8 -29 4 -23 23 -33 18 -12 -5 10 -12 25 -18 32 -16
7 3 13 1 13 -4 0 -6 -8 -11 -17 -11 -17 -1 -17 -2 0 -6 9 -2 17 -12 17 -21 0
-14 2 -15 10 -2 5 9 5 17 -1 21 -6 3 -5 10 3 16 9 8 17 7 26 -3 7 -8 9 -14 4
-14 -6 0 -9 -8 -8 -17 0 -10 -4 -17 -11 -16 -13 3 -32 -46 -25 -65 3 -10 8 -8
17 5 14 18 25 15 29 -9 1 -7 5 -19 9 -25 5 -8 3 -13 -3 -13 -6 0 -8 -4 -5 -10
3 -5 -1 -22 -9 -38 -8 -16 -13 -32 -10 -35 3 -3 1 -8 -5 -12 -15 -9 -13 15 4
45 19 33 19 46 0 30 -12 -10 -15 -10 -15 1 0 10 -3 11 -8 3 -9 -15 -26 3 -30
31 l-2 20 12 -20 c7 -11 21 -21 32 -23 12 -2 16 1 10 9 -5 8 -3 10 6 4 10 -6
12 -4 7 9 -4 10 -7 23 -7 29 -1 7 -7 1 -14 -12 l-14 -24 -8 24 c-11 32 -12 53
-1 60 5 4 4 15 -3 25 -8 14 -10 15 -6 3 4 -14 -2 -17 -30 -17 -19 0 -34 4 -34
10 0 5 5 6 10 3 6 -3 10 -1 10 5 0 6 5 8 10 5 6 -3 10 -1 10 5 0 7 -7 9 -16 6
-9 -4 -27 0 -40 9 -15 9 -25 11 -29 5 -4 -6 -3 -10 2 -9 15 4 43 -13 37 -22
-3 -5 -10 -7 -15 -4 -5 3 -6 -2 -2 -11 4 -10 2 -15 -3 -11 -6 3 -16 1 -24 -5
-12 -8 -11 -9 4 -4 15 5 17 2 13 -14 -3 -11 -1 -18 4 -14 5 3 9 13 10 22 0 12
2 13 6 3 4 -11 7 -11 14 0 4 7 11 10 14 7 4 -4 -3 -15 -14 -25 -12 -9 -21 -23
-21 -29 0 -7 -7 -15 -16 -18 -8 -3 -12 -10 -9 -16 3 -5 3 -10 0 -10 -7 0 -329
329 -396 405 -24 28 -105 113 -179 190 -74 77 -160 170 -191 205 l-56 65 -5
349 -5 350 24 -30 c14 -16 89 -101 166 -189z m1073 23 c57 -56 104 -105 104
-110 0 -4 -49 -8 -109 -8 l-109 0 2 110 c0 60 3 110 5 110 2 0 50 -46 107
-102z m-858 -1185 c69 -75 111 -127 106 -134 -4 -7 -3 -9 3 -6 5 3 32 -17 59
-45 27 -29 41 -46 32 -39 -10 8 -18 10 -18 5 1 -16 27 -44 41 -44 10 -1 9 -4
-3 -11 -20 -11 -24 -29 -7 -29 5 0 7 5 4 10 -3 6 -1 10 4 10 14 0 14 -17 1
-25 -6 -4 -7 -11 -4 -17 5 -7 2 -8 -6 -3 -8 5 -11 3 -8 -6 3 -8 11 -14 18 -14
7 0 15 -7 17 -15 4 -13 3 -13 -6 0 -6 8 -11 11 -11 5 0 -5 -12 4 -26 20 -16
18 -24 23 -20 12 3 -11 2 -16 -4 -12 -15 9 -12 -9 5 -31 15 -19 15 -19 8 1 -4
14 5 9 30 -16 20 -20 39 -34 43 -30 4 3 4 0 -1 -8 -6 -11 -12 -9 -26 10 -23
29 -25 12 -3 -19 9 -13 14 -25 12 -28 -3 -2 -13 12 -24 31 -10 19 -22 35 -27
35 -4 0 -5 -5 -1 -12 4 -7 3 -8 -4 -4 -14 9 -15 -4 -2 -24 8 -13 10 -13 10 0
0 9 6 7 16 -8 9 -13 13 -26 10 -29 -3 -4 -6 -2 -6 4 0 6 -10 10 -22 9 -18 -1
-22 4 -20 19 2 19 2 19 -9 2 -8 -14 -7 -22 4 -35 26 -31 26 -38 1 -38 -21 0
-24 4 -19 23 7 29 -12 27 -38 -5 -21 -26 -38 -21 -30 8 3 12 0 20 -6 20 -7 0
-10 -4 -6 -9 6 -11 -33 -36 -42 -27 -3 3 5 9 18 14 l23 9 -27 5 c-15 3 -30 1
-33 -3 -9 -16 -22 -10 -19 9 1 9 8 16 14 15 6 -2 10 0 8 5 -1 4 3 8 8 10 6 1
10 -4 10 -10 0 -7 8 -14 19 -16 11 -3 16 0 11 7 -3 6 -10 9 -14 6 -5 -2 -6 6
-4 18 3 14 -3 30 -17 42 -13 12 -20 14 -18 6 2 -7 -2 -15 -9 -18 -7 -2 -10 3
-8 14 2 10 4 21 4 25 1 3 9 5 19 3 9 -1 24 1 33 6 18 9 39 -19 34 -47 -2 -11
-4 -21 -4 -24 -1 -3 -6 2 -11 10 -8 12 -9 10 -7 -9 3 -18 11 -25 31 -27 14 -1
24 2 21 7 -4 5 -13 9 -21 9 -8 0 -12 5 -9 11 5 7 14 4 26 -7 20 -18 23 -16 13
10 -3 9 -10 14 -14 11 -5 -3 -12 0 -16 6 -4 8 -3 9 4 5 17 -11 15 9 -3 24 -8
7 -15 17 -15 23 0 5 8 3 18 -6 12 -11 22 -13 32 -6 12 8 12 9 -4 7 -10 -2 -21
2 -23 9 -2 7 3 10 14 8 10 -2 21 -4 26 -4 4 -1 7 -8 7 -17 0 -8 5 -12 10 -9 8
5 8 11 0 20 -8 10 -7 15 2 19 7 3 2 3 -11 0 -15 -4 -21 -2 -17 4 3 6 2 13 -4
17 -6 4 -7 11 -4 17 4 7 2 8 -4 4 -7 -4 -12 -2 -12 3 0 6 -5 11 -12 11 -6 0
-8 -3 -5 -6 3 -4 2 -15 -4 -26 -9 -18 -8 -18 10 -8 12 6 21 8 21 5 0 -3 0 -7
0 -10 0 -3 -2 -5 -5 -6 -2 0 -18 -4 -34 -9 -20 -6 -33 -4 -45 6 -9 8 -11 9 -6
2 15 -18 12 -25 -7 -25 -35 0 -41 -3 -38 -20 5 -32 -14 -44 -40 -27 -16 10
-25 12 -30 4 -3 -6 -3 -10 2 -9 21 4 31 -2 29 -18 -1 -14 6 -18 29 -16 28 2
29 1 11 -12 -10 -8 -23 -12 -27 -9 -5 3 -9 0 -9 -6 0 -7 8 -9 21 -5 19 6 20 5
8 -8 -8 -8 -21 -12 -29 -10 -13 4 -13 3 0 -5 8 -6 18 -8 22 -6 4 3 8 0 8 -6 0
-8 9 -10 23 -7 40 11 58 -12 34 -41 -8 -10 -4 -12 19 -9 30 4 54 -7 54 -26 0
-6 -7 -2 -16 9 -15 19 -16 19 -10 -1 6 -20 6 -20 -9 -1 -14 18 -15 18 -15 2 0
-9 5 -27 11 -39 9 -20 9 -21 -4 -4 -11 14 -16 15 -21 5 -3 -7 -3 -1 0 13 4 18
1 28 -11 32 -11 5 -14 14 -9 32 4 15 2 25 -5 25 -6 0 -8 -8 -5 -17 4 -11 3
-14 -3 -7 -13 18 -78 33 -94 22 -12 -8 -11 -9 1 -5 18 5 71 -82 69 -115 -1
-22 -2 -22 -8 2 -9 35 -51 100 -64 100 -8 0 -9 -3 -1 -8 20 -14 55 -82 51 -99
-4 -15 -5 -15 -6 2 -1 11 -13 33 -26 50 -21 25 -23 26 -18 7 3 -12 9 -22 14
-22 5 0 9 -5 9 -11 0 -5 -5 -7 -12 -3 -6 4 -9 3 -6 -2 3 -5 2 -18 -3 -29 -6
-17 -8 -16 -9 10 l-2 30 -8 -30 -8 -30 -1 32 c0 17 4 33 10 35 9 3 9 9 1 24
-6 12 -9 30 -6 40 3 12 -3 27 -15 38 -11 10 -18 23 -17 29 2 7 1 8 -2 4 -2 -4
-10 -3 -18 4 -8 7 -14 7 -14 1 0 -5 6 -12 14 -15 9 -4 12 -14 9 -28 -6 -22 -7
-22 -14 -3 -5 13 -8 5 -8 -26 0 -28 2 -40 8 -32 5 9 11 -4 15 -38 4 -29 5 -55
1 -58 -3 -3 -5 4 -5 16 0 11 -4 24 -10 27 -6 3 -9 -3 -7 -14 2 -20 -4 -21
-110 -24 l-113 -3 0 535 0 536 143 -145 c78 -80 193 -200 255 -267z m254
-1227 c7 -1 19 -5 26 -9 7 -5 12 -3 12 4 0 8 5 7 17 -2 9 -8 14 -9 11 -4 -4 6
6 11 22 11 21 1 26 -2 23 -15 -2 -10 4 -24 13 -32 10 -8 15 -9 11 -2 -4 6 -4
13 0 16 5 2 2 2 -4 1 -15 -4 -16 5 -3 26 9 13 10 13 10 0 0 -13 1 -13 10 0 9
13 10 13 11 0 1 -8 1 -18 0 -22 0 -4 7 -4 17 -1 15 6 15 5 3 -10 -8 -10 -11
-20 -7 -24 3 -3 6 -1 6 6 0 7 6 11 14 8 10 -4 12 0 9 14 -3 10 -9 19 -14 19
-5 0 -9 4 -9 8 0 5 7 9 15 9 8 0 13 -2 11 -5 -2 -2 0 -16 6 -32 6 -20 6 -35
-2 -50 -9 -17 -8 -27 5 -47 10 -14 12 -22 6 -19 -6 4 -11 2 -11 -3 0 -15 30
-14 31 2 0 6 4 3 9 -8 l9 -20 0 20 c0 11 -4 27 -9 35 -9 13 -10 13 -10 0 -1
-12 -3 -11 -11 3 -6 10 -8 25 -6 35 3 11 5 8 6 -8 l1 -25 15 29 c8 15 15 36
16 45 0 9 5 3 9 -12 5 -16 6 -36 4 -45 -3 -10 2 -6 10 8 9 15 15 19 15 10 0
-8 -6 -24 -14 -34 -8 -11 -15 -29 -15 -40 0 -16 4 -13 17 12 13 28 18 31 25
18 6 -10 5 -23 -2 -33 -9 -15 -10 -14 -4 7 4 17 3 22 -4 15 -5 -5 -13 -25 -17
-44 l-7 -35 27 30 c16 16 26 21 22 12 -3 -9 1 -22 10 -30 14 -11 15 -10 8 12
-4 14 -4 22 0 18 4 -4 9 -19 11 -34 2 -24 1 -25 -15 -10 -10 9 -20 14 -22 11
-3 -2 -16 -6 -30 -8 -18 -3 -24 -10 -22 -28 1 -15 0 -17 -3 -6 -3 9 -9 17 -14
17 -4 0 -7 -8 -6 -17 0 -10 -6 -18 -14 -18 -8 0 -14 6 -12 13 2 13 -14 17 -21
5 -2 -5 -2 -3 -1 4 2 6 -5 11 -16 10 -16 -1 -17 -3 -4 -21 8 -11 14 -27 13
-36 0 -12 -2 -12 -7 2 -6 15 -9 14 -19 -8 -9 -19 -8 -27 4 -39 13 -13 13 -15
-1 -15 -9 0 -16 -5 -16 -11 0 -5 5 -7 12 -3 7 4 8 3 4 -5 -4 -6 -12 -9 -17 -6
-5 4 -9 1 -9 -4 0 -6 6 -11 13 -12 10 0 10 -2 0 -6 -7 -2 -13 -9 -13 -14 0 -6
8 -6 19 1 11 5 22 6 25 2 3 -5 0 -9 -7 -9 -7 0 -19 -2 -27 -4 -8 -2 -16 3 -16
11 -1 8 -2 22 -3 30 -1 13 -2 13 -11 0 -5 -8 -10 -10 -10 -4 0 6 -7 11 -15 11
-14 0 -19 -9 -16 -33 1 -6 -5 -11 -13 -11 -11 0 -12 6 -6 23 7 18 6 22 -5 17
-8 -3 -15 0 -15 5 0 6 9 9 20 7 11 -2 20 0 20 6 0 12 -37 12 -45 -1 -4 -6 -2
-16 4 -23 6 -8 6 -18 1 -27 -6 -8 -10 -22 -10 -30 0 -13 1 -13 10 0 9 13 10
13 10 0 0 -10 3 -11 8 -4 5 9 11 8 20 -2 11 -13 10 -14 -12 -10 -14 3 -26 0
-26 -5 0 -6 -4 -7 -10 -4 -5 3 -10 2 -10 -3 0 -17 13 -22 29 -9 14 10 14 10 4
-4 -15 -19 -55 -18 -61 2 -3 11 -1 11 8 -1 9 -12 10 -10 6 13 -7 31 2 79 14
72 5 -3 5 5 2 17 -6 21 -7 21 -10 4 -3 -15 -6 -16 -13 -5 -7 12 -9 12 -9 0 0
-11 -4 -10 -16 5 -8 10 -13 14 -10 8 3 -7 -1 -29 -8 -50 -9 -25 -15 -32 -16
-19 -1 18 -2 18 -16 -5 -15 -25 -15 -25 -9 10 l5 35 -15 -39 c-19 -50 -30 -60
-22 -21 4 17 4 24 0 16 -5 -11 -7 -11 -14 0 -6 9 -7 1 -3 -21 l6 -35 -21 33
c-19 30 -24 32 -38 20 -15 -11 -16 -11 -10 4 4 11 2 17 -6 15 -7 -1 -11 4 -9
11 1 8 -2 11 -8 7 -8 -5 -8 -11 0 -20 8 -10 8 -20 1 -33 -7 -12 -7 -22 0 -29
6 -6 4 -10 -6 -10 -17 0 -19 11 -5 37 7 13 6 21 -4 29 -11 9 -12 6 -8 -14 5
-28 -24 -47 -38 -25 -6 10 -9 10 -13 -1 -2 -8 -3 0 -1 16 3 19 1 25 -5 17 -4
-8 -12 -12 -16 -10 -4 1 -11 -7 -16 -19 -5 -13 -6 -23 -3 -23 2 0 9 10 15 23
8 18 9 16 4 -13 -3 -25 -2 -31 5 -20 8 12 10 10 10 -9 0 -16 -4 -22 -15 -17
-10 3 -15 -1 -15 -14 0 -31 -39 -22 -39 10 -1 59 -3 74 -8 61 -5 -11 -7 -11
-15 0 -7 12 -9 11 -7 -1 3 -31 -1 -39 -18 -34 -14 5 -15 4 -4 -4 8 -6 10 -15
6 -22 -5 -9 -4 -11 3 -6 7 4 12 1 12 -8 0 -23 -90 -20 -91 3 -1 13 -2 13 -6
-1 -5 -21 -73 -26 -73 -5 0 8 -4 7 -10 -3 -9 -13 -10 -13 -10 0 0 11 -2 12 -8
2 -7 -10 -138 -12 -632 -12 -343 0 -625 2 -628 5 -2 2 3 56 11 119 22 161 63
260 141 344 98 105 45 96 661 103 456 5 999 3 1047 -5z"/>
<path d="M5593 7114 c-101 -51 -99 -210 4 -259 117 -56 258 80 199 193 -8 15
-26 38 -40 51 -34 32 -116 39 -163 15z"/>
<path d="M3414 6846 c-58 -58 -47 -123 28 -162 47 -24 83 -18 117 21 52 60 39
125 -33 159 -50 24 -74 20 -112 -18z"/>
<path d="M3406 6078 c-4 -84 -6 -563 -5 -1065 2 -502 1 -915 -2 -917 -3 -3
-76 -7 -162 -8 l-157 -3 0 -75 0 -76 243 -2 242 -3 -1 773 c0 425 -1 943 -2
1151 l-2 377 -74 0 -73 0 -7 -152z"/>
<path d="M6836 5405 c-107 -37 -159 -163 -103 -246 12 -18 38 -44 57 -57 29
-20 44 -23 93 -20 49 4 62 9 93 39 46 43 64 79 64 123 0 112 -106 195 -204
161z"/>
<path d="M3010 5378 c-59 -40 -82 -84 -77 -147 3 -48 8 -58 46 -94 41 -38 44
-39 102 -35 48 4 65 10 90 34 63 60 76 126 37 184 -52 76 -135 101 -198 58z"/>
<path d="M3098 3762 l-298 -2 0 -83 0 -82 382 3 c210 2 383 4 383 5 0 1 -2 38
-5 82 l-5 80 -80 0 c-44 0 -214 -1 -377 -3z"/>
<path d="M3170 3430 l-85 -5 -3 -40 c-2 -21 -1 -54 3 -72 l6 -33 80 0 c58 0
81 4 85 13 3 8 4 43 2 78 l-3 64 -85 -5z"/>
<path d="M3414 3401 c-2 -2 -4 -62 -4 -132 l0 -129 26 -6 c23 -6 102 0 109 8
1 1 5 62 7 134 l5 131 -69 -1 c-38 -1 -71 -3 -74 -5z"/>
<path d="M6924 3304 c3 -9 6 -48 6 -87 l0 -72 174 0 174 0 6 59 c3 32 6 72 6
87 l0 29 -186 0 c-166 0 -185 -2 -180 -16z"/>
<path d="M6916 3082 c-3 -3 -6 -40 -6 -82 l0 -77 118 -7 c64 -3 231 -9 370
-12 l252 -7 0 29 c0 16 -3 52 -6 80 l-7 52 -31 -9 c-55 -15 -247 -30 -295 -23
-25 3 -95 17 -156 29 -113 24 -229 37 -239 27z"/>
<path d="M3717 2874 c-3 -11 -8 -31 -11 -46 -4 -15 -15 -32 -26 -38 -19 -10
-20 -21 -20 -178 l0 -167 1555 0 1555 0 0 163 0 162 -1509 0 c-1367 0 -1509 1
-1515 16 -3 9 -6 30 -6 47 0 41 -16 68 -23 41z"/>
<path d="M7278 2665 c-4 -4 -265 -15 -350 -15 l-28 0 0 -90 0 -90 189 0 c104
0 196 -3 205 -6 14 -5 16 7 16 100 0 82 -3 106 -13 106 -8 0 -16 -2 -19 -5z"/>
<path d="M3410 2553 l0 -93 59 0 c33 0 67 -3 76 -7 16 -6 17 2 13 85 -2 50 -6
93 -9 96 -2 2 -34 6 -71 8 l-68 4 0 -93z"/>
</g>
</svg>
